<svg xmlns="http://www.w3.org/2000/svg" viewBox="0 0 464 464"><defs><style>.cls-1{fill:#f936aa;}.cls-2{fill:#fb72c3;}.cls-3{fill:#fff;}</style></defs><title>ideable_1</title><g id="Layer_2" data-name="Layer 2"><g id="Layer_1-2" data-name="Layer 1"><rect class="cls-1" width="464" height="464" rx="67" ry="67"/><path class="cls-2" d="M19,194H18v90A162,162,0,0,1,180,446h91C271,306.82,158.18,194,19,194Z"/><polygon class="cls-2" points="446 135 446 228 238 228 238 20 330 20 330 135 446 135"/><path class="cls-3" d="M154.61,279V153.07h29.67V279Z"/><path class="cls-3" d="M251.08,280.72q-18.86,0-29.62-13.18T210.69,231q0-23.69,11-36.9t30.19-13.23q20.19,0,30.82,14.13h1a96.87,96.87,0,0,1-2.2-19.21V145H310.7V279H288.31l-5.65-12.49h-1.24Q271.46,280.73,251.08,280.72Zm10.24-20.93q11.19,0,16.41-5.85t5.7-19.9V231.2q0-15.51-5.32-22.23t-17.27-6.71q-9.76,0-15.17,7.45t-5.41,21.66q0,14.2,5.46,21.32T261.32,259.79Z"/></g></g></svg>